# xmcd CD database file
#
# Track frame offsets:
#	150
#	16106
#	29218
#	39553
#	52646
#	67461
#	78771
#	93613
#	108831
#	120546
#	132381
#	143173
#	152621
#	163921
#	177598
#	189111
#	200053
#	213083
#	227313
#	240436
#	250346
#	264413
#	283483
#	296988
#	309226
#
# Disc length: 4302 seconds
#
# Revision: 2
# Processed by: cddbd v1.5.2PL0 Copyright (c) Steve Scherf et al.
# Submitted via: CDex 1.70beta2
#
DISCID=6710cc19
DTITLE=Various Artist - 50 Romantic Hits - Disc 2
DYEAR=1999
DGENRE=Country
TTITLE0=Englebert Humperdink - A Lovely Way to Spend An Evening
TTITLE1=The Platters - Harbor Lights
TTITLE2=Pat Boone - Remember You're Mine
TTITLE3=BJ Thomas - Raindrops Keep Falling On My Head
TTITLE4=Timi Yuro - Little Things Mean A Lot
TTITLE5=Vince Hill - Heartaches
TTITLE6=Frankie Lane - Jealousy
TTITLE7=Nat King Cole - Embraceable You
TTITLE8=Ronnie Carrol - Say Wonderful Things
TTITLE9=Skeeter Davis - The End Of The World
TTITLE10=The Lettermen - The Way You Look Tonight
TTITLE11=The Bachelors - I Believe
TTITLE12=Brook Benton - It's Just A Matter Of Time
TTITLE13=Patti Page - Changing Partners
TTITLE14=Jerry Butler - Moon River
TTITLE15=Jonnie Ray - Somebody Stole My Gal
TTITLE16=Billie Holiday - That Ole Devil Called Love
TTITLE17=Dick Haymes - It MIght As Well Be Spring
TTITLE18=Roger Williams - Autumn Leaves
TTITLE19=Pat Boone - Don't Forbid Me
TTITLE20=The Ink Spots - To Each His Own
TTITLE21=Englebert Humperdink - I'm Getting Sentimental Over You
TTITLE22=BJ Thomas - Close To You
TTITLE23=The Castells - So This Is Love
TTITLE24=The Four Aces - Stranger In Paradise
EXTD=YEAR: 1999
EXTT0=
EXTT1=
EXTT2=
EXTT3=
EXTT4=
EXTT5=
EXTT6=
EXTT7=
EXTT8=
EXTT9=
EXTT10=
EXTT11=
EXTT12=
EXTT13=
EXTT14=
EXTT15=
EXTT16=
EXTT17=
EXTT18=
EXTT19=
EXTT20=
EXTT21=
EXTT22=
EXTT23=
EXTT24=
PLAYORDER=
